<svg width="20" height="20" viewBox="0 0 20 20" fill="none" xmlns="http://www.w3.org/2000/svg">
<path d="M1.75421 9.99999C1.75421 5.63984 5.28881 2.10526 9.64895 2.10526C14.0091 2.10526 17.5437 5.63984 17.5437 9.99999C17.5437 14.3601 14.0091 17.8947 9.64895 17.8947H1.75421L4.06653 15.5824C2.63786 14.1538 1.75421 12.18 1.75421 9.99999ZM5.56614 16.3158H9.64895C13.1371 16.3158 15.9647 13.4881 15.9647 9.99999C15.9647 6.51188 13.1371 3.6842 9.64895 3.6842C6.16083 3.6842 3.33316 6.51188 3.33316 9.99999C3.33316 11.6993 4.00519 13.2881 5.18302 14.466L6.2995 15.5824L5.56614 16.3158ZM8.85947 5.26315H10.4384V14.7368H8.85947V5.26315ZM5.70158 7.63157H7.28053V12.3684H5.70158V7.63157ZM12.0174 7.63157H13.5963V12.3684H12.0174V7.63157Z" fill="#858585"/>
</svg>
