<svg width="19" height="18" viewBox="0 0 19 18" fill="none" xmlns="http://www.w3.org/2000/svg">
<path d="M10.25 15.75V17.625L8 16.125L5.75 17.625V15.75H5.375C3.92525 15.75 2.75 14.5747 2.75 13.125V3.75C2.75 2.50736 3.75736 1.5 5 1.5H15.5C15.9142 1.5 16.25 1.83579 16.25 2.25V15C16.25 15.4142 15.9142 15.75 15.5 15.75H10.25ZM10.25 14.25H14.75V12H5.375C4.75368 12 4.25 12.5037 4.25 13.125C4.25 13.7463 4.75368 14.25 5.375 14.25H5.75V12.75H10.25V14.25ZM14.75 10.5V3H5V10.5266C5.12247 10.5091 5.24768 10.5 5.375 10.5H14.75ZM5.75 3.75H7.25V5.25H5.75V3.75ZM5.75 6H7.25V7.5H5.75V6ZM5.75 8.25H7.25V9.75H5.75V8.25Z" fill="#858585"/>
</svg>
