<svg width="18" height="18" viewBox="0 0 18 18" fill="none" xmlns="http://www.w3.org/2000/svg">
<g clip-path="url(#clip0_193_157)">
<path d="M7.77751 9.94383L8.11459 8.07633C8.12299 8.03259 8.18402 8.02851 8.19819 8.07074L8.74652 9.92931C8.75981 9.96889 8.81589 9.96861 8.82879 9.92889L9.35838 8.07105C9.37213 8.02869 9.43316 8.03214 9.44202 8.07576L9.79903 9.94386M14.4343 9.94383L14.7714 8.07633C14.7798 8.03259 14.8409 8.02851 14.855 8.07074L15.4034 9.92931C15.4166 9.96889 15.4727 9.96861 15.4856 9.92889L16.0152 8.07105C16.029 8.02869 16.09 8.03214 16.0989 8.07576L16.4559 9.94386M10.9 8.04107V9.95877M6.67659 8.04107H5.86853V9.95877H6.67659M6.617 8.99992H5.86853M12.0009 8.04107V9.36069C12.0009 9.58541 12.1124 9.73672 12.3018 9.85773C12.394 9.91665 12.5105 9.95863 12.6553 9.95884C12.7806 9.95901 12.8854 9.92998 12.9721 9.88635C13.1928 9.77522 13.3335 9.60643 13.3335 9.35932V8.0411M3.96204 9.04348L4.76761 9.95877M3.73078 9.04006V9.95877M3.73078 9.04006C3.73078 9.04006 4.09954 9.03785 4.241 9.03785C4.52626 9.03785 4.76761 8.81471 4.76761 8.53944C4.76761 8.2642 4.52626 8.04107 4.241 8.04107H3.73141L3.73078 9.04006ZM1.5441 9.12581V9.95877M1.5441 9.12581C1.5441 9.12581 1.92987 9.12342 2.07809 9.12342C2.37698 9.12342 2.62986 8.88112 2.62986 8.58223C2.62986 8.28336 2.37695 8.04107 2.07809 8.04107H1.5441V9.12581ZM5.83066 3.87484C6.75141 3.3039 7.83703 2.97449 9 2.97449C11.5235 2.97449 13.6842 4.52593 14.5818 6.72707H3.41824C3.74449 5.92691 4.23773 5.21253 4.85438 4.62789M12.5807 13.8459C13.4634 13.193 14.1609 12.3043 14.5818 11.2728H3.41824C4.31578 13.4739 6.47648 15.0253 9 15.0253C9.8993 15.0253 10.7525 14.8285 11.5189 14.4748M0.263672 6.72707H17.7363M17.7363 11.2728H0.263672" stroke="white" stroke-width="0.527344" stroke-miterlimit="10" stroke-linecap="round" stroke-linejoin="round"/>
<path d="M13.8371 2.0228C14.0766 2.01542 14.2921 2.0453 14.4475 2.1694C14.9291 2.55401 14.6612 3.69729 15.0458 4.17928C15.4287 4.65846 16.6036 4.65038 16.8729 5.20831C17.0655 5.60803 16.7284 6.19971 16.5839 6.72706H1.41609C1.27159 6.19971 0.934445 5.60803 1.1271 5.20831C1.3964 4.65002 2.57132 4.65846 2.95417 4.17928C3.33878 3.69729 3.07089 2.55401 3.55253 2.1694C4.03206 1.78655 5.08675 2.30088 5.64468 2.03159C6.19382 1.76651 6.4473 0.619009 7.05585 0.480845C7.64542 0.346899 8.36999 1.26764 8.99999 1.26764C9.62999 1.26764 10.3546 0.346899 10.9441 0.480845C11.5527 0.619009 11.8062 1.76651 12.3553 2.03159C12.4312 2.06815 12.5163 2.0903 12.6077 2.1019M1.41619 11.2728C1.27152 11.8 0.934445 12.3919 1.12721 12.7915C1.39647 13.3496 2.57143 13.3412 2.95421 13.8207C3.33889 14.3024 3.07086 15.4457 3.5526 15.8303C4.03203 16.2132 5.08657 15.699 5.64471 15.9682C6.19378 16.2331 6.4473 17.3807 7.05589 17.519C7.64528 17.653 8.36999 16.7321 8.99996 16.7321C9.62992 16.7321 10.3546 17.653 10.944 17.519C11.5526 17.3807 11.8061 16.2332 12.3552 15.9683C12.9133 15.699 13.9679 16.2132 14.4473 15.8304C14.9291 15.4457 14.661 14.3025 15.0457 13.8207C15.4285 13.3413 16.6034 13.3496 16.8727 12.7915C17.0655 12.392 16.7285 11.8001 16.5838 11.2728H1.41619V11.2728Z" stroke="white" stroke-width="0.527344" stroke-miterlimit="10" stroke-linecap="round" stroke-linejoin="round"/>
</g>
<defs>
<clipPath id="clip0_193_157">
<rect width="18" height="18" fill="white"/>
</clipPath>
</defs>
</svg>
